<svg width="694" height="370" viewBox="0 0 694 370" fill="none" xmlns="http://www.w3.org/2000/svg">
<rect x="0.658203" y="0.570312" width="692.364" height="368.777" rx="30" fill="#1D1D1B"/>
<path d="M111.496 165.239V168.239H126.646L135.496 154.739V244.739H150.496V135.239H132.496L111.496 165.239ZM184.99 244.739H209.74C241.99 244.739 265.99 222.239 265.99 189.989C265.99 157.739 241.99 135.239 209.74 135.239H184.99V244.739ZM210.49 150.239C235.24 150.239 250.24 165.239 250.24 189.989C250.24 214.739 235.24 229.739 210.49 229.739H200.74V150.239H210.49ZM279.514 165.239V168.239H294.664L303.514 154.739V244.739H318.514V135.239H300.514L279.514 165.239ZM353.008 244.739H377.758C410.008 244.739 434.008 222.239 434.008 189.989C434.008 157.739 410.008 135.239 377.758 135.239H353.008V244.739ZM378.508 150.239C403.258 150.239 418.258 165.239 418.258 189.989C418.258 214.739 403.258 229.739 378.508 229.739H368.758V150.239H378.508ZM447.531 165.239V168.239H462.681L471.531 154.739V244.739H486.531V135.239H468.531L447.531 165.239ZM521.025 244.739H561.525C581.025 244.739 596.025 232.739 596.025 213.989C596.025 201.989 590.175 193.289 581.175 188.639C589.275 183.689 594.525 175.289 594.525 165.239C594.525 147.239 579.525 135.239 560.025 135.239H521.025V244.739ZM536.775 229.739V196.739H562.275C571.275 196.739 580.275 201.239 580.275 213.239C580.275 223.739 571.275 229.739 562.275 229.739H536.775ZM536.775 181.739V150.239H560.775C569.775 150.239 578.775 154.739 578.775 165.989C578.775 177.239 569.775 181.739 560.775 181.739H536.775Z" fill="white"/>
</svg>
