<svg width="693" height="370" viewBox="0 0 693 370" fill="none" xmlns="http://www.w3.org/2000/svg">
<rect x="0.632812" y="0.570312" width="692.364" height="368.777" rx="30" fill="white"/>
<path d="M115.971 244.739H131.721V196.739H177.471V181.739H131.721V150.239H181.971V135.239H115.971V244.739ZM198.441 244.739H214.191V196.739H259.941V181.739H214.191V150.239H264.441V135.239H198.441V244.739ZM280.912 244.739H296.662V196.739H342.412V181.739H296.662V150.239H346.912V135.239H280.912V244.739ZM363.383 244.739H379.133V196.739H424.883V181.739H379.133V150.239H429.383V135.239H363.383V244.739ZM445.854 244.739H461.604V196.739H507.354V181.739H461.604V150.239H511.854V135.239H445.854V244.739ZM528.324 244.739H544.074V196.739H589.824V181.739H544.074V150.239H594.324V135.239H528.324V244.739Z" fill="#1D1D1B"/>
</svg>
