<svg width="521" height="153" viewBox="0 0 521 153" fill="none" xmlns="http://www.w3.org/2000/svg">
<path d="M0.0283203 57.959H118.706V74.6657H0.0283203V57.959ZM0.0283203 99.2616H118.706V115.504H0.0283203V99.2616Z" fill="black"/>
<path d="M133.484 30.5801L250.315 78.8438V94.6224L133.484 142.886V124.787L226.303 86.7331L133.484 48.679V30.5801Z" fill="black"/>
<path d="M308.499 127.107H379.614V147.527H282.178V147.063C282.178 134.069 284.948 122.931 290.952 114.113C296.493 104.832 306.19 96.4785 320.044 87.6611C321.891 86.733 324.662 84.8767 328.356 82.5563C347.751 71.4185 356.987 59.8167 356.987 48.2148C356.987 41.2537 354.678 35.6848 350.06 31.044C345.442 26.4033 339.439 24.547 332.512 24.547C324.662 24.547 318.197 27.3314 313.579 32.4363C308.961 37.5411 306.652 44.5022 306.652 53.7837V56.1041H284.948V55.1759C284.948 39.3974 289.104 27.3314 297.878 18.05C306.652 9.23254 318.197 4.5918 333.897 4.5918C347.751 4.5918 359.295 8.76847 368.069 16.6577C376.843 24.547 380.999 35.2207 380.999 48.2148C380.999 57.4963 378.229 66.3137 373.149 73.7389C368.069 81.1641 359.757 88.1252 348.213 95.0863L344.057 97.4067C322.815 109.009 311.27 119.218 308.499 127.107Z" fill="black"/>
<path d="M404.088 0.878906H428.562V92.3016C428.562 104.832 431.333 114.577 436.874 120.61C442.416 126.643 450.728 129.892 462.273 129.892C473.817 129.892 482.129 126.643 487.671 120.61C493.212 114.577 495.983 105.296 495.983 92.7656V0.878906H520.457V93.6938C520.457 112.257 515.378 126.643 505.218 136.853C495.059 147.062 480.744 152.167 462.273 152.167C443.339 152.167 429.024 147.062 419.327 137.317C409.629 127.571 404.55 113.185 404.55 93.6938V0.878906H404.088Z" fill="black"/>
</svg>
