<svg width="1367" height="151" viewBox="0 0 1367 151" fill="none" xmlns="http://www.w3.org/2000/svg">
<path d="M354.868 8.38477H380.317V94.1423H398.799V112.93H380.317V145.961H357.898V112.93H297.304V92.0211L354.868 8.38477ZM358.504 32.3242L316.391 94.4454H358.504V32.3242Z" fill="black"/>
<path d="M420.007 0.203125H444.244V90.8092C444.244 103.536 446.971 112.627 452.425 118.688C457.878 124.749 466.361 127.779 477.571 127.779C489.084 127.779 497.567 124.749 503.021 118.688C508.474 112.627 511.201 103.233 511.201 90.8092V0.203125H535.438V92.3243C535.438 110.809 530.288 125.052 520.29 135.052C510.292 145.052 496.052 150.203 477.571 150.203C458.484 150.203 444.244 145.355 434.549 135.658C424.854 125.961 420.007 111.415 420.007 92.3243V0.203125Z" fill="black"/>
<path d="M619.058 36.8691V60.2025H612.999C603.91 60.2025 596.941 62.6267 592.397 67.1722C587.852 71.7176 585.429 78.6873 585.429 87.7782V145.96H563.009V39.2934H584.217V58.0813C587.246 50.8085 591.488 45.657 596.335 42.0207C601.183 38.3843 607.242 36.8691 613.908 36.8691C613.908 36.8691 614.211 36.8691 614.514 36.8691C616.331 36.8691 617.846 36.8691 619.058 36.8691Z" fill="black"/>
<path d="M693.892 0.203125H793.569V21.7183H717.826V60.8092H784.177V82.0213H717.826V146.264H693.892V0.203125Z" fill="black"/>
<path d="M863.555 36.8691V60.2025H857.496C848.407 60.2025 841.438 62.6267 836.894 67.1722C832.349 71.7176 829.926 78.6873 829.926 87.7782V145.96H807.506V39.2934H828.714V58.0813C831.743 50.8085 835.985 45.657 840.833 42.0207C845.68 38.3843 851.739 36.8691 858.405 36.8691C858.405 36.8691 858.708 36.8691 859.011 36.8691C860.526 36.8691 862.04 36.8691 863.555 36.8691Z" fill="black"/>
<path d="M879.914 0.203125H902.637V23.2334H879.914V0.203125ZM879.914 39.294H902.637V146.264H879.914V39.294Z" fill="black"/>
<path d="M1022.01 98.9912H947.478C947.781 108.991 950.205 116.567 954.749 122.022C959.294 127.476 965.959 129.9 974.442 129.9C980.502 129.9 985.652 128.385 989.894 125.355C994.135 122.325 996.862 118.082 998.074 112.628H1020.8C1018.68 123.84 1013.22 132.628 1004.74 139.597C995.953 146.264 985.652 149.9 973.231 149.9C957.779 149.9 945.963 144.749 937.177 134.749C928.391 124.446 924.149 110.506 924.149 92.6276C924.149 75.0518 928.694 61.1124 937.48 51.1124C946.266 41.1124 958.688 35.9609 974.139 35.9609C989.288 35.9609 1001.1 40.8094 1009.89 50.8094C1018.68 60.8094 1022.92 74.1428 1022.92 91.4155C1022.92 92.9306 1022.92 95.3549 1022.61 98.6882C1022.01 98.3852 1022.01 98.6882 1022.01 98.9912ZM998.68 82.3246C998.68 73.5367 996.256 66.87 992.015 62.0215C987.47 57.1731 981.411 54.7488 973.231 54.7488C965.656 54.7488 959.597 57.1731 955.052 61.7185C950.508 66.264 948.084 73.2337 947.478 82.0215H998.68V82.3246Z" fill="black"/>
<path d="M1115.62 0.203125H1137.74V146.264H1115.93V132.324C1111.38 138.385 1106.23 142.627 1101.08 145.658C1095.93 148.688 1089.57 149.9 1082.9 149.9C1069.27 149.9 1058.06 144.749 1049.58 134.446C1041.09 124.143 1036.85 110.506 1036.85 93.5365C1036.85 76.2637 1041.09 62.6274 1049.58 52.0213C1058.06 41.4152 1068.97 36.2637 1082.6 36.2637C1089.87 36.2637 1096.23 37.7789 1101.69 40.5062C1107.14 43.2334 1111.99 47.4758 1115.93 52.9304V0.203125H1115.62ZM1087.45 55.6577C1078.66 55.6577 1071.69 58.991 1066.85 65.6577C1062 72.3243 1059.58 81.4152 1059.58 93.5365C1059.58 104.749 1062 113.839 1067.15 120.203C1072 126.567 1078.97 129.9 1087.75 129.9C1096.84 129.9 1104.11 126.567 1108.96 120.203C1113.81 113.839 1116.23 104.446 1116.23 92.0213C1116.23 80.2031 1113.81 71.1122 1108.96 65.0516C1104.11 58.991 1096.84 55.6577 1087.45 55.6577Z" fill="black"/>
<path d="M1256.51 78.0819V145.961H1233.78V75.9606C1233.78 69.597 1231.96 64.4455 1228.63 61.1122C1225.3 57.7788 1220.45 55.9606 1214.09 55.9606C1205.61 55.9606 1198.94 58.3849 1194.09 63.5364C1189.25 68.3849 1186.82 75.3546 1186.82 84.1425V146.264H1164.1V39.294H1185.91V53.5364C1189.55 48.0819 1194.4 43.8394 1200.15 40.8091C1205.91 37.7788 1211.97 36.2637 1218.63 36.2637C1231.96 36.2637 1241.66 39.294 1247.42 45.6576C1253.48 52.0212 1256.51 62.6273 1256.51 78.0819Z" fill="black"/>
<path d="M1364.06 70.2037H1341.94C1341.64 65.0521 1339.52 60.8097 1335.58 58.0824C1331.64 55.3552 1326.19 53.84 1319.22 53.84C1313.46 53.84 1309.22 54.7491 1305.89 56.8703C1302.56 58.9915 1301.04 61.7188 1301.04 65.3552C1301.04 68.6885 1302.25 71.4158 1304.98 73.537C1307.71 75.6582 1312.25 77.4764 1318.92 78.9915L1332.55 82.0218C1345.58 85.0521 1354.67 88.9915 1359.52 93.537C1364.36 98.0824 1366.79 104.749 1366.79 113.537C1366.79 124.749 1362.85 133.537 1354.67 139.901C1346.49 146.264 1335.28 149.295 1320.74 149.295C1306.19 149.295 1294.98 145.961 1287.11 139.295C1279.23 132.628 1275.29 123.234 1275.29 111.113H1297.41C1298.01 117.779 1300.44 122.628 1304.68 125.658C1308.92 128.992 1314.98 130.507 1322.86 130.507C1329.52 130.507 1334.67 129.295 1338.61 126.567C1342.55 124.143 1344.37 120.507 1344.37 116.264C1344.37 112.931 1343.16 110.507 1341.03 108.689C1338.61 106.87 1334.37 105.052 1327.7 103.537L1311.65 99.5976C1299.53 96.5673 1291.04 92.9309 1285.89 88.0824C1280.74 83.537 1278.32 76.8703 1278.32 68.9915C1278.32 58.6885 1281.96 50.5067 1289.53 44.7491C1297.1 38.9915 1307.1 35.6582 1320.13 35.6582C1333.46 35.6582 1344.06 38.6885 1351.94 45.0521C1359.82 51.4158 1364.06 59.5976 1364.06 70.2037Z" fill="black"/>
<path d="M0.0908203 56.5664H119.158V73.2331H0.0908203V56.5664ZM0.0908203 97.7785H119.158V114.142H0.0908203V97.7785Z" fill="black"/>
<path d="M135.215 29.293L252.161 77.4748V93.2324L135.215 141.414V123.232L227.924 85.3536L135.215 47.7778V29.293Z" fill="black"/>
</svg>
