<svg width="700" height="380" viewBox="0 0 700 380" fill="none" xmlns="http://www.w3.org/2000/svg">
<rect x="1.7572" y="19.9492" width="696.255" height="358.23" stroke="#1D1E1B" stroke-width="3"/>
<path d="M116.799 79.8648L119.224 77.4414H169.236V92.5874H134.076V304.632H168.933V319.475H119.527L117.102 317.052L116.799 79.8648Z" fill="#1D1E1B"/>
<path d="M288.96 228.297C288.657 245.261 281.686 261.316 269.562 273.13C257.438 284.944 241.373 291.608 224.702 291.911C207.729 292.214 191.664 285.549 179.237 274.038C166.81 262.528 159.838 246.473 158.929 229.812H184.087C184.087 234.962 185.299 240.111 187.421 244.655C189.542 249.199 192.574 253.44 196.211 257.075C199.848 260.71 204.395 263.436 209.244 264.951C214.094 266.768 219.247 267.677 224.399 267.374C229.552 267.677 235.008 266.768 239.858 264.951C244.707 263.133 249.254 260.407 252.891 256.469C256.528 252.834 259.559 248.29 261.681 243.443C263.5 238.597 264.409 233.447 264.409 227.994C264.409 203.155 248.041 188.918 224.399 188.009C209.547 187.403 198.636 188.009 180.753 189.221L169.538 165.593L190.755 106.826H274.108V131.666H205.91L192.27 166.199C202.879 164.987 213.488 164.078 224.096 164.381C262.59 165.29 288.96 189.524 288.96 228.297Z" fill="#1D1E1B"/>
<path d="M282.293 64.7207H291.083V94.104L291.386 94.4069L291.69 94.104C292.902 92.5894 294.417 91.6806 296.236 90.7719C298.055 89.8631 299.873 89.5602 301.692 89.5602C303.814 89.2573 306.239 89.8631 308.36 90.469C310.482 91.3777 312.301 92.5894 314.119 94.104C315.635 95.6186 316.847 97.7391 317.756 99.8595C318.666 101.98 318.969 104.1 318.666 106.524V132.272H309.876V106.524C309.573 100.768 306.845 97.7391 301.086 97.7391C298.661 97.7391 296.236 98.6478 294.417 100.465C292.599 102.283 291.386 104.706 291.386 107.13V132.272H282.596V64.7207H282.293Z" fill="#1D1E1B"/>
<path d="M360.796 94.1015C362.009 92.5869 363.827 91.6781 365.343 90.7693C367.161 89.8606 368.98 89.5577 370.799 89.5577C380.498 89.5577 385.954 95.919 385.954 104.704V132.269H377.164V105.612C377.164 100.16 374.436 97.7365 369.889 97.7365C367.464 97.7365 365.04 98.6452 363.221 100.463C361.402 102.28 360.19 104.704 360.19 107.127V132.269H351.4V105.612C351.4 100.16 348.672 97.7365 344.125 97.7365C341.701 97.7365 339.276 98.6452 337.457 100.463C335.639 102.28 334.426 104.704 334.426 107.127V132.269H325.636V90.4664H333.517L334.426 94.1015L334.729 94.4044L335.032 94.1015C336.245 92.5869 337.76 91.6781 339.579 90.7693C341.398 89.8606 343.216 89.5577 345.035 89.5577C347.763 89.2547 350.491 89.8606 352.612 91.0723C355.037 92.2839 356.856 94.1015 358.371 96.5248L360.796 94.1015Z" fill="#1D1E1B"/>
<path d="M444.454 291.91C404.142 291.91 382.015 251.925 382.015 198.308C382.015 144.691 404.142 104.705 444.454 104.705C484.767 104.705 506.893 144.691 506.893 198.308C506.893 251.925 484.464 291.91 444.454 291.91ZM444.454 267.979C470.521 267.979 482.039 239.505 482.039 198.308C482.039 157.11 470.824 128.636 444.454 128.636C418.387 128.636 406.869 157.11 406.869 198.308C407.173 239.505 418.387 267.979 444.454 267.979Z" fill="#1D1E1B"/>
<path d="M494.465 95.9206H502.043V87.4388L508.711 78.957H510.227V95.9206H518.713V103.494H510.227V123.789C510.227 124.395 510.227 125.001 510.53 125.304C510.833 125.91 511.136 126.213 511.439 126.819C511.742 127.121 512.348 127.424 512.954 127.727C513.561 128.03 514.167 128.03 514.47 128.03L519.623 127.122V134.695L515.076 135.603C506.589 135.603 502.043 131.362 502.043 123.789V103.494H494.465V95.9206Z" fill="#1D1E1B"/>
<path d="M582.97 316.749L580.546 319.172H530.534V304.329H565.39V92.2845H530.534V77.4414H580.546L582.97 79.8648V316.749Z" fill="#1D1E1B"/>
<path d="M0.88092 77.4414L698.66 77.4413" stroke="#1D1E1B" stroke-width="3"/>
<path d="M0.668945 319.475L698.66 319.475" stroke="#1D1E1B" stroke-width="3"/>
<path d="M116.799 379.68L116.799 18.4492" stroke="#1D1E1B" stroke-width="3"/>
<path d="M582.97 379.68L582.97 18.4492" stroke="#1D1E1B" stroke-width="3"/>
<path d="M60.4381 43.2855L53.7881 33.2055H46.0881L56.5881 49.1655L45.3881 66.1055H53.0881L60.4381 54.9755L67.7881 66.1055H75.4881L64.2881 49.1655L74.7881 33.2055H67.0881L60.4381 43.2855Z" fill="#1D1E1B"/>
<path d="M28.0187 210.159H51.1187V223.459H58.1187V210.159H63.7187V203.509H58.1187V172.359H49.0187C49.0187 172.359 40.2687 185.659 28.0187 203.509V210.159ZM35.8587 203.509C41.4587 195.529 47.0587 187.199 51.1187 181.179V203.509H35.8587ZM80.155 200.639L73.505 190.559H65.805L76.305 206.519L65.105 223.459H72.805L80.155 212.329L87.505 223.459H95.205L84.005 206.519L94.505 190.559H86.805L80.155 200.639Z" fill="#1D1E1B"/>
</svg>
