<svg width="524" height="210" viewBox="0 0 524 210" fill="none" xmlns="http://www.w3.org/2000/svg">
<path d="M0 2.57174L2.23584 0.333984H45.3266V13.3536H14.8379V196.646H44.9201V209.666H2.23584L0 207.428L0 2.57174Z" fill="white"/>
<path d="M161.589 130.937C161.183 145.584 155.288 159.418 144.922 169.589C134.556 179.761 120.734 185.66 106.1 185.864C91.4651 186.067 77.4403 180.575 66.8708 170.403C56.3014 160.435 50.0004 146.601 49.3906 132.158H71.1393C71.1393 136.633 72.1556 140.905 73.9849 144.974C75.8142 149.043 78.2533 152.704 81.5054 155.756C84.7576 158.807 88.6195 161.249 92.6847 162.673C96.7498 164.3 101.222 164.91 105.693 164.707C110.165 164.91 114.84 164.3 118.905 162.673C123.173 161.045 127.035 158.604 130.287 155.552C133.54 152.298 135.979 148.636 137.808 144.364C139.434 140.092 140.247 135.616 140.044 131.141C140.044 109.577 126.019 97.1674 105.49 96.5571C92.4814 96.1503 83.3348 96.5571 67.8871 97.5743L58.1307 77.0276L76.424 26.373H148.581V47.7334H90.2456L78.4566 77.6379C87.6032 76.4173 96.7498 76.0105 105.896 76.0105C139.028 76.4173 161.589 97.3708 161.589 130.937Z" fill="white"/>
<path d="M183.137 19.6602H204.682V90.8614L205.698 91.8786L206.715 90.8614C209.56 87.403 213.219 84.7584 217.487 82.9275C221.553 81.0966 226.024 80.0795 230.496 80.0795C235.984 79.6726 241.472 80.4864 246.553 82.5207C251.635 84.3516 256.31 87.403 260.172 91.2683C264.034 95.1335 267.082 99.8124 268.912 104.898C270.741 109.984 271.554 115.477 271.351 120.969V183.83H250.009V120.969C249.399 107.136 242.691 99.4055 228.463 99.4055C222.366 99.4055 216.471 101.847 211.999 106.119C207.528 110.391 205.089 116.087 204.682 122.19V183.423H183.137V19.6602Z" fill="white"/>
<path d="M258.95 21.6952C260.17 20.4746 261.593 19.4575 263.015 18.8472C264.642 18.2369 266.268 17.83 267.894 17.83C276.634 17.83 281.309 23.3227 281.309 31.2565V55.8718H273.382V32.0702C273.382 27.3913 271.146 24.9501 267.081 24.9501C264.845 24.9501 262.609 25.7638 260.983 27.3913C259.357 29.0188 258.341 31.0531 258.341 33.2908V55.8718H250.413V32.0702C250.413 27.3913 248.178 24.9501 244.112 24.9501C241.877 24.9501 239.641 25.7638 238.015 27.3913C236.389 29.0188 235.372 31.0531 235.372 33.2908V55.8718H227.445V18.4403H234.559L235.372 21.6952L235.779 22.1021L236.185 21.6952C237.202 20.4746 238.625 19.4575 240.047 18.8472C241.47 18.2369 243.096 17.83 244.926 17.83C247.365 17.6266 249.6 18.2369 251.836 19.254C253.869 20.4746 255.698 22.1021 256.918 24.1364L258.95 21.6952Z" fill="white"/>
<path d="M346.149 185.864C311.391 185.864 292.285 151.28 292.285 104.898C292.285 58.5151 311.595 23.9316 346.149 23.9316C380.703 23.9316 400.012 58.5151 400.012 104.898C400.012 151.28 380.703 185.864 346.149 185.864ZM346.149 165.114C368.71 165.114 378.467 140.498 378.467 104.898C378.467 69.297 368.71 44.6817 346.149 44.6817C323.587 44.6817 313.831 69.297 313.831 104.898C313.831 140.498 323.587 165.114 346.149 165.114Z" fill="white"/>
<path d="M407.938 82.5202H427.45V39.3926L444.524 39.3926H448.589V82.5202H470.338V101.846H448.589V153.721C448.589 155.145 448.792 156.569 449.199 157.993C449.809 159.418 450.622 160.638 451.638 161.655C452.654 162.672 453.874 163.486 455.297 163.893C456.719 164.3 458.142 164.503 459.565 164.503L472.574 162.266V181.592L460.785 183.829C439.239 183.829 427.654 173.047 427.654 153.721V101.846H408.141V82.5202H407.938Z" fill="white"/>
<path d="M523.998 207.428L521.763 209.666H478.672V196.646H508.754V13.3536H478.672V0.333984H521.763L523.998 2.57174V207.428Z" fill="white"/>
</svg>
