<svg width="2029" height="773" viewBox="0 0 2029 773" fill="none" xmlns="http://www.w3.org/2000/svg">
<path d="M1636.45 523.544L1638.87 521.121H1688.89V536.267H1653.42V748.312H1688.28V763.155H1638.87L1636.45 760.731V523.544Z" fill="#1D1E1B"/>
<path d="M1808.31 671.975C1808.01 688.939 1801.04 704.994 1788.91 716.807C1776.79 728.621 1760.72 735.286 1744.05 735.589C1727.08 735.891 1711.01 729.227 1698.59 717.716C1686.16 706.205 1679.19 690.15 1678.28 673.49H1703.44C1703.44 678.639 1704.65 683.789 1706.77 688.333C1708.89 692.877 1711.92 697.118 1715.56 700.753C1719.2 704.388 1723.74 707.114 1728.59 708.629C1733.44 710.446 1738.6 711.355 1743.75 711.052C1748.9 711.355 1754.36 710.446 1759.21 708.629C1764.06 706.811 1768.6 704.085 1772.24 700.147C1775.88 696.512 1778.91 691.968 1781.03 687.121C1782.85 682.274 1783.76 677.125 1783.76 671.672C1783.76 646.833 1767.39 632.596 1743.75 631.687C1728.9 631.081 1717.99 631.687 1700.1 632.898L1688.89 609.271L1710.11 550.504H1793.76V575.343H1725.56L1711.92 609.876C1722.53 608.665 1733.14 607.756 1743.75 608.059C1782.24 609.271 1808.31 633.201 1808.31 671.975Z" fill="#1D1E1B"/>
<path d="M1744.66 467.199H1753.45V496.583L1753.75 496.885L1754.06 496.583C1755.27 495.068 1756.78 494.159 1758.6 493.25C1760.42 492.342 1762.24 492.039 1764.06 492.039C1766.18 491.736 1768.6 492.342 1770.73 492.947C1772.85 493.856 1774.67 495.068 1776.49 496.583C1778 498.097 1779.21 500.218 1780.12 502.338C1781.03 504.458 1781.33 506.579 1781.03 509.002V534.751H1772.24V509.002C1771.94 503.247 1769.21 500.218 1763.45 500.218C1761.03 500.218 1758.6 501.126 1756.78 502.944C1754.96 504.761 1753.75 507.185 1753.75 509.608V534.751H1744.96V467.199H1744.66Z" fill="#1D1E1B"/>
<path d="M1823.16 496.586C1824.37 495.071 1826.19 494.162 1827.71 493.254C1829.53 492.345 1831.34 492.042 1833.16 492.042C1842.86 492.042 1848.32 498.403 1848.32 507.188V534.754H1839.53V508.097C1839.53 502.644 1836.8 500.221 1832.25 500.221C1829.83 500.221 1827.4 501.13 1825.58 502.947C1823.77 504.765 1822.55 507.188 1822.55 509.611V534.754H1813.76V508.097C1813.76 502.644 1811.04 500.221 1806.49 500.221C1804.06 500.221 1801.64 501.13 1799.82 502.947C1798 504.765 1796.79 507.188 1796.79 509.611V534.754H1788V492.951H1795.88L1796.79 496.586L1797.09 496.889L1797.4 496.586C1798.61 495.071 1800.12 494.162 1801.94 493.254C1803.76 492.345 1805.58 492.042 1807.4 492.042C1810.13 491.739 1812.85 492.345 1814.98 493.557C1817.4 494.768 1819.22 496.586 1820.74 499.009L1823.16 496.586Z" fill="#1D1E1B"/>
<path d="M1882.87 735.588C1842.56 735.588 1820.13 695.602 1820.13 641.985C1820.13 588.368 1842.26 548.383 1882.57 548.383C1922.88 548.383 1945.01 588.368 1945.01 641.985C1945.01 695.602 1922.58 735.588 1882.87 735.588ZM1882.87 711.657C1908.94 711.657 1920.46 683.183 1920.46 641.985C1920.46 600.788 1909.24 572.314 1882.87 572.314C1856.5 572.314 1845.29 600.788 1845.29 641.985C1845.29 683.183 1856.5 711.657 1882.87 711.657Z" fill="#1D1E1B"/>
<path d="M1855.6 493.859H1863.78V484.771L1871.05 475.684H1872.87V494.162H1882.27V502.341H1872.87V524.454C1872.87 525.06 1872.87 525.666 1873.18 526.271C1873.48 526.877 1873.78 527.483 1874.08 527.786C1874.39 528.089 1874.99 528.695 1875.6 528.695C1876.21 528.998 1876.81 528.998 1877.42 528.998L1882.87 528.089V536.268L1877.72 537.177C1868.63 537.177 1863.48 532.633 1863.48 524.454V502.341H1855.29V493.859H1855.6Z" fill="#1D1E1B"/>
<path d="M1990.47 760.729L1988.05 763.153H1938.04V748.31H1972.89V536.265H1938.04V521.422H1988.05L1990.47 523.845V760.729Z" fill="#1D1E1B"/>
<path d="M37.3672 3.01322L38.6856 0.589844H65.878V15.7359H46.7609V227.78H65.7132V242.624H38.8504L37.3672 239.897V3.01322Z" fill="#1D1E1B"/>
<path d="M139.216 151.141C139.051 168.105 135.261 184.159 128.668 195.973C122.076 207.787 113.342 214.452 104.278 214.754C95.0488 215.057 86.3143 208.393 79.5574 196.882C72.9653 185.371 69.01 169.316 68.5156 152.656H82.1942C82.1942 157.805 82.8534 162.955 84.007 167.499C85.1607 172.043 86.8087 176.284 88.7863 179.919C90.7639 183.554 93.236 186.28 95.8728 187.795C98.5097 189.612 101.311 190.521 104.113 190.218C106.915 190.521 109.881 189.612 112.518 187.795C115.155 185.977 117.627 183.251 119.604 179.313C121.582 175.678 123.23 171.134 124.384 166.287C125.372 161.44 125.867 156.291 125.867 150.838C125.867 125.999 117.132 111.761 104.113 110.853C96.0376 110.247 90.1047 110.853 80.3814 112.064L74.2837 88.4365L85.8199 29.6699H131.305V54.5094H94.2248L86.8087 89.6482C92.5768 88.4366 98.3449 87.5278 104.113 87.8307C124.878 88.4365 139.216 112.67 139.216 151.141Z" fill="#1D1E1B"/>
<path d="M152.729 22.7031H166.407V105.098L167.066 106.309L167.726 105.098C169.538 101.16 171.846 98.1305 174.482 95.7071C177.119 93.5866 179.921 92.375 182.723 92.6779C186.183 92.375 189.644 93.2837 192.775 95.4041C196.072 97.5246 198.873 101.16 201.345 105.703C203.817 110.247 205.63 115.7 206.948 121.455C208.102 127.514 208.597 133.875 208.432 139.934V212.635H194.918V139.934C194.424 123.879 190.303 115.094 181.239 115.094C177.449 115.094 173.658 117.82 170.857 122.667C168.055 127.514 166.407 134.178 166.242 141.448V212.332H152.729V22.7031Z" fill="#1D1E1B"/>
<path d="M200.357 25.1258C201.181 23.6112 202.005 22.7025 202.994 21.7937C203.983 20.8849 204.972 20.582 206.125 20.582C211.564 20.582 214.695 26.9434 214.695 36.3339V64.8085H209.751V37.2427C209.751 31.7901 208.268 29.0638 205.796 29.0638C204.312 29.0638 202.994 29.9726 202.005 31.7901C201.016 33.6076 200.357 36.031 200.357 38.7573V64.8085H195.413V37.2427C195.413 31.7901 193.93 29.0638 191.458 29.0638C189.975 29.0638 188.656 29.9726 187.667 31.7901C186.678 33.6076 186.019 36.031 186.019 38.7573V64.8085H181.075V21.7937H185.525L186.019 25.4288L186.349 26.0346L186.678 25.4288C187.338 23.9142 188.162 22.7025 189.151 22.0966C190.139 21.1879 191.128 20.8849 192.117 20.8849C193.6 20.582 195.083 21.1879 196.402 22.7025C197.72 23.9142 198.874 26.0346 199.533 28.458L200.357 25.1258Z" fill="#1D1E1B"/>
<path d="M255.235 215.059C233.317 215.059 221.286 175.073 221.286 121.456C221.286 67.8391 233.317 27.8535 255.235 27.8535C277.154 27.8535 289.185 67.8391 289.185 121.456C289.185 175.073 276.989 215.059 255.235 215.059ZM255.235 190.825C269.408 190.825 275.671 162.35 275.671 121.153C275.671 79.9559 269.573 51.4813 255.235 51.4813C240.898 51.4813 234.8 79.9559 234.8 121.153C234.965 162.35 241.062 190.825 255.235 190.825Z" fill="#1D1E1B"/>
<path d="M294.129 95.4038H306.489V45.4219L317.201 45.4219H319.838V95.4038H333.517V117.82H319.838V177.798C319.838 179.616 320.003 181.13 320.332 182.645C320.662 184.16 321.157 185.674 321.816 186.886C322.475 188.098 323.299 189.006 324.123 189.612C324.947 190.218 325.936 190.521 326.76 190.218L334.835 187.795V210.211L327.419 212.634C313.905 212.634 306.489 200.214 306.489 177.798V117.82H294.129V95.4038Z" fill="#1D1E1B"/>
<path d="M367.302 239.897L365.983 242.321H338.791V227.478H357.743V15.433H338.791V0.589844H365.983L367.302 3.01322V239.897Z" fill="#1D1E1B"/>
<path d="M577.667 519.607L580.092 517.184H630.104V532.33H594.944V744.374H629.801V759.217H580.395L577.667 756.491V519.607Z" fill="#1D1E1B"/>
<path d="M834.515 667.735C834.212 684.698 827.24 700.753 815.116 712.567C802.992 724.381 786.928 731.045 770.257 731.348C753.283 731.651 737.219 724.987 724.791 713.476C712.667 701.965 705.393 685.91 704.483 669.249H729.641C729.641 674.399 730.853 679.549 732.975 684.093C735.097 688.636 738.128 692.877 741.765 696.512C745.402 700.147 749.949 702.874 754.799 704.388C759.648 706.206 764.801 707.115 769.954 706.812C775.106 707.115 780.562 706.206 785.412 704.388C790.262 702.571 794.808 699.844 798.445 695.907C802.083 692.271 805.114 687.728 807.235 682.881C809.054 678.034 809.963 672.885 809.963 667.432C809.963 642.592 793.899 628.355 769.954 627.446C755.102 626.841 744.19 627.446 726.307 628.658L715.092 605.03L736.309 546.264H819.966V571.103H751.768L738.128 606.242C748.736 605.03 759.345 604.122 769.954 604.424C808.145 605.03 834.515 629.264 834.515 667.735Z" fill="#1D1E1B"/>
<path d="M926.155 539.297H951.313V621.691L952.525 622.903L953.738 621.691C957.072 617.753 961.315 614.724 966.165 612.301C971.015 610.18 976.167 608.969 981.32 609.272C987.685 608.969 994.05 609.877 999.809 611.998C1005.87 614.118 1011.02 617.753 1015.57 622.297C1020.12 626.841 1023.45 632.294 1025.88 638.049C1028 644.108 1028.91 650.469 1028.6 656.527V729.228H1003.75V656.527C1002.84 640.472 995.263 631.688 978.592 631.688C971.621 631.688 964.649 634.414 959.497 639.261C954.344 644.108 951.313 650.772 951.01 658.042V728.925H926.155V539.297Z" fill="#1D1E1B"/>
<path d="M1013.75 541.72C1015.27 540.205 1016.78 539.296 1018.6 538.387C1020.42 537.479 1022.24 537.176 1024.36 537.176C1034.36 537.176 1040.12 543.537 1040.12 552.928V581.402H1031.03V553.836C1031.03 548.384 1028.3 545.658 1023.76 545.658C1021.03 545.658 1018.6 546.566 1016.78 548.384C1014.97 550.201 1013.75 552.625 1013.75 555.351V581.402H1004.66V553.836C1004.66 548.384 1001.93 545.658 997.386 545.658C994.658 545.658 992.233 546.566 990.414 548.384C988.596 550.201 987.383 552.625 987.383 555.351V581.402H978.29V538.387H986.474L987.383 542.023L987.989 542.628L988.596 542.023C989.808 540.508 991.323 539.296 993.142 538.69C994.961 537.782 996.779 537.479 998.598 537.479C1001.33 537.176 1004.05 537.782 1006.48 539.296C1008.9 540.508 1011.03 542.628 1012.24 545.052L1013.75 541.72Z" fill="#1D1E1B"/>
<path d="M1194.2 731.652C1153.89 731.652 1131.76 691.667 1131.76 638.05C1131.76 584.433 1153.89 544.447 1194.2 544.447C1234.52 544.447 1256.64 584.433 1256.64 638.05C1256.64 691.667 1234.21 731.652 1194.2 731.652ZM1194.2 707.419C1220.27 707.419 1231.79 678.944 1231.79 637.747C1231.79 596.55 1220.57 568.075 1194.2 568.075C1167.83 568.075 1156.62 596.55 1156.62 637.747C1156.92 678.944 1168.14 707.419 1194.2 707.419Z" fill="#1D1E1B"/>
<path d="M1331.37 611.998H1354.1V562.016L1373.8 562.016H1378.65V611.998H1403.81V634.414H1378.65V694.392C1378.65 696.21 1378.96 697.724 1379.56 699.239C1380.17 700.753 1381.08 702.268 1382.29 703.48C1383.5 704.691 1385.02 705.6 1386.53 706.206C1388.05 706.812 1389.87 707.115 1391.38 706.812L1406.24 704.388V726.805L1392.6 729.228C1367.74 729.228 1354.1 716.808 1354.1 694.392V634.414H1331.37V611.998Z" fill="#1D1E1B"/>
<path d="M1519.11 756.491L1516.68 758.914H1466.67V744.071H1501.53V532.027H1466.67V517.184H1516.68L1519.11 519.607V756.491Z" fill="#1D1E1B"/>
<path d="M0.817383 523.544L3.24221 521.121H53.2543V536.267H18.0943L18.0943 748.312H52.9512V763.155H3.54531L0.817383 760.429L0.817383 523.544Z" fill="#1D1E1B"/>
<path d="M188.136 671.672C187.833 688.636 180.861 704.691 168.737 716.505C156.613 728.319 140.549 734.983 123.878 735.286C106.904 735.589 90.8397 728.924 78.4124 717.413C66.2883 705.902 59.0138 689.848 58.1045 673.187H83.2621C83.2621 678.337 84.4745 683.486 86.5962 688.03C88.7179 692.574 91.749 696.815 95.3862 700.45C99.0234 704.085 103.57 706.811 108.42 708.326C113.269 710.143 118.422 711.052 123.575 710.749C128.728 711.052 134.183 710.143 139.033 708.326C143.883 706.508 148.429 703.782 152.067 699.844C155.704 696.209 158.735 691.665 160.857 686.818C162.675 681.972 163.584 676.822 163.584 671.369C163.584 646.53 147.52 632.293 123.575 631.384C108.723 630.778 97.811 631.384 79.9279 632.596L68.7131 608.968L89.9303 550.201H173.587V575.041H105.389L91.749 610.179C102.358 608.968 112.966 608.059 123.575 608.362C161.766 608.968 188.136 633.201 188.136 671.672Z" fill="#1D1E1B"/>
<path d="M174.839 543.234H199.996V625.629L201.209 626.841L202.421 625.629C205.755 621.691 209.999 618.662 214.848 616.238C219.698 614.118 224.851 612.906 230.004 613.209C236.369 612.906 242.734 613.815 248.493 615.935C254.555 618.056 259.708 621.691 264.254 626.235C268.801 630.779 272.135 636.231 274.56 641.987C276.682 648.045 277.591 654.406 277.288 660.465V733.166H252.433V660.465C251.524 644.41 243.946 635.625 227.276 635.625C220.304 635.625 213.333 638.352 208.18 643.198C203.027 648.045 199.996 654.709 199.693 661.979L199.693 732.863H174.839L174.839 543.234Z" fill="#1D1E1B"/>
<path d="M242.538 545.657C244.054 544.142 245.569 543.234 247.388 542.325C249.207 541.416 251.025 541.113 253.147 541.113C263.149 541.113 268.908 547.475 268.908 556.865V585.34H259.815V557.774C259.815 552.321 257.087 549.595 252.541 549.595C249.813 549.595 247.388 550.504 245.569 552.321C243.751 554.139 242.538 556.562 242.538 559.289V585.34H233.445V557.774C233.445 552.321 230.717 549.595 226.171 549.595C223.443 549.595 221.018 550.504 219.199 552.321C217.381 554.139 216.168 556.562 216.168 559.289V585.34H207.075V542.325H215.259L216.168 545.96L216.775 546.566L217.381 545.96C218.593 544.445 220.109 543.234 221.927 542.628C223.746 541.719 225.565 541.416 227.383 541.416C230.111 541.113 232.839 541.719 235.264 543.234C237.689 544.445 239.81 546.566 241.023 548.989L242.538 545.657Z" fill="#1D1E1B"/>
<path d="M322.308 737.406C281.996 737.406 259.869 697.421 259.869 643.804C259.869 590.187 281.996 550.201 322.308 550.201C362.621 550.201 384.748 590.187 384.748 643.804C384.748 697.421 362.318 737.406 322.308 737.406ZM322.308 713.173C348.375 713.173 359.893 684.698 359.893 643.501C359.893 602.304 348.678 573.829 322.308 573.829C295.938 573.829 284.724 602.304 284.724 643.501C285.027 684.698 296.242 713.173 322.308 713.173Z" fill="#1D1E1B"/>
<path d="M334.231 618.064H356.964V568.082L376.666 568.082H381.516V618.064H406.673V640.48H381.516V700.458C381.516 702.276 381.819 703.791 382.425 705.305C383.031 706.82 383.94 708.334 385.153 709.546C386.365 710.758 387.881 711.667 389.396 712.272C390.912 712.878 392.73 713.181 394.246 712.878L409.098 710.455V732.871L395.458 735.294C370.604 735.294 356.964 722.875 356.964 700.458V640.48H334.231V618.064Z" fill="#1D1E1B"/>
<path d="M435.316 770.13L432.891 772.553H382.879V757.71H417.736V545.665H382.879V530.822H432.891L435.316 533.246V770.13Z" fill="#1D1E1B"/>
<path d="M654.477 194.092L656.901 193.191H706.913V198.819H671.753V277.606H706.61V283.121H657.204L654.477 282.108V194.092Z" fill="#1D1E1B"/>
<path d="M841.795 249.13C841.492 255.433 834.521 261.398 822.396 265.788C810.272 270.177 794.208 272.653 777.537 272.766C760.563 272.878 744.499 270.402 732.072 266.125C719.947 261.848 712.673 255.883 711.764 249.693H736.921C736.921 251.606 738.134 253.519 740.255 255.208C742.377 256.896 745.408 258.472 749.045 259.822C752.683 261.173 757.229 262.186 762.079 262.749C766.928 263.424 772.081 263.762 777.234 263.649C782.387 263.762 787.843 263.424 792.692 262.749C797.542 262.073 802.088 261.06 805.726 259.597C809.363 258.247 812.394 256.558 814.516 254.757C816.334 252.957 817.244 251.043 817.244 249.017C817.244 239.788 801.179 234.498 777.234 234.16C762.382 233.935 751.47 234.16 733.587 234.61L722.372 225.831L743.59 203.996H827.246V213.225H759.048L745.408 226.282C756.017 225.831 766.625 225.494 777.234 225.606C815.425 225.831 841.795 234.836 841.795 249.13Z" fill="#1D1E1B"/>
<path d="M866.648 201.408H891.806V232.023L893.018 232.473L894.231 232.023C897.565 230.559 901.808 229.434 906.658 228.533C911.508 227.746 916.66 227.295 921.813 227.408C928.178 227.295 934.544 227.633 940.303 228.421C946.365 229.209 951.517 230.559 956.064 232.248C960.61 233.936 963.945 235.962 966.369 238.1C968.491 240.352 969.4 242.715 969.097 244.966V271.979H944.243V244.966C943.334 239.001 935.756 235.737 919.085 235.737C912.114 235.737 905.143 236.75 899.99 238.551C894.837 240.352 891.806 242.828 891.503 245.529V271.866H866.648V201.408Z" fill="#1D1E1B"/>
<path d="M954.246 202.309C955.762 201.747 957.277 201.409 959.096 201.071C960.915 200.734 962.733 200.621 964.855 200.621C974.857 200.621 980.616 202.985 980.616 206.474V217.054H971.523V206.812C971.523 204.786 968.795 203.773 964.249 203.773C961.521 203.773 959.096 204.11 957.277 204.786C955.459 205.461 954.246 206.361 954.246 207.374V217.054H945.153V206.812C945.153 204.786 942.425 203.773 937.879 203.773C935.151 203.773 932.726 204.11 930.907 204.786C929.089 205.461 927.876 206.361 927.876 207.374V217.054H918.783V201.071H926.967L927.876 202.422L928.483 202.647L929.089 202.422C930.301 201.859 931.817 201.409 933.635 201.184C935.454 200.846 937.273 200.734 939.091 200.734C941.819 200.621 944.547 200.846 946.972 201.409C949.397 201.859 951.518 202.647 952.731 203.547L954.246 202.309Z" fill="#1D1E1B"/>
<path d="M1055.18 272.88C1014.87 272.88 992.739 258.023 992.739 238.101C992.739 218.179 1014.87 203.322 1055.18 203.322C1095.49 203.322 1117.62 218.179 1117.62 238.101C1117.62 258.023 1095.19 272.88 1055.18 272.88ZM1055.18 263.876C1081.25 263.876 1092.76 253.296 1092.76 237.989C1092.76 222.681 1081.55 212.101 1055.18 212.101C1028.81 212.101 1017.59 222.681 1017.59 237.989C1017.9 253.296 1029.11 263.876 1055.18 263.876Z" fill="#1D1E1B"/>
<path d="M1126.71 228.421H1149.44V209.85L1169.15 209.85H1174V228.421H1199.15V236.75H1174V259.035C1174 259.711 1174.3 260.273 1174.9 260.836C1175.51 261.399 1176.42 261.962 1177.63 262.412C1178.84 262.862 1180.36 263.2 1181.88 263.425C1183.39 263.65 1185.21 263.762 1186.73 263.65L1201.58 262.749V271.078L1187.94 271.979C1163.08 271.979 1149.44 267.364 1149.44 259.035V236.75H1126.71V228.421Z" fill="#1D1E1B"/>
<path d="M1261.29 282.108L1258.87 283.009H1208.85V277.494H1243.71V198.707H1208.85V193.191H1258.87L1261.29 194.092V282.108Z" fill="#1D1E1B"/>
<path d="M1445.16 133.778L1446.43 131.442L1480.59 125.052L1482.96 137.713L1458.95 142.206L1492.1 319.46L1515.91 315.006L1518.23 327.414L1484.49 333.726L1482.25 332.049L1445.16 133.778Z" fill="#1D1E1B"/>
<path d="M1596.3 233.922C1598.75 248.141 1596.5 262.452 1590.07 273.877C1583.63 285.302 1573.7 292.925 1562.36 295.308C1550.82 297.73 1538.8 294.212 1528.52 286.177C1518.44 278.104 1510.96 265.612 1507.73 251.802L1524.91 248.587C1525.72 252.892 1527.35 257.042 1529.51 260.569C1531.67 264.096 1534.4 267.254 1537.46 269.828C1540.51 272.402 1544.04 274.1 1547.59 274.747C1551.19 275.646 1554.85 275.748 1558.32 274.836C1561.89 274.431 1565.47 272.974 1568.5 270.835C1571.53 268.696 1574.21 265.836 1576.07 262.08C1577.99 258.577 1579.35 254.391 1580.04 250.068C1580.53 245.785 1580.34 241.364 1579.49 236.806C1575.6 216.042 1562.2 206.231 1545.91 208.492C1535.67 209.883 1528.31 211.784 1516.29 215.082L1504.93 196.763L1510.24 144.928L1567.37 134.24L1571.3 155.257L1524.73 163.97L1520.86 194.833C1527.91 192.465 1535.02 190.35 1542.31 189.248C1568.7 184.836 1590.29 201.763 1596.3 233.922Z" fill="#1D1E1B"/>
<path d="M1593.19 123.383L1610.38 120.169L1623.26 189.044L1624.28 189.902L1624.92 188.735C1626.58 185.017 1629 181.942 1631.94 179.297C1634.92 176.905 1638.25 175.234 1641.81 174.829C1646.11 173.762 1650.6 173.709 1655.07 174.707C1659.55 175.705 1663.63 178.085 1667.45 181.302C1671.27 184.52 1674.4 188.652 1676.95 193.153C1679.35 197.946 1680.96 203.148 1681.75 208.504L1693.12 269.277L1676.15 272.453L1664.78 211.68C1661.65 198.375 1655.1 192 1643.71 194.13C1638.95 195.021 1634.61 198.19 1631.85 202.9C1629.09 207.61 1628.06 213.568 1628.99 219.684L1640.03 278.684L1622.85 281.899L1593.19 123.383Z" fill="#1D1E1B"/>
<path d="M1762.17 163.06C1764.04 159.303 1766.67 156.19 1769.65 153.798C1772.63 151.406 1776.17 149.696 1779.69 149.037C1798.53 145.513 1811.42 158.303 1815.3 179.067L1827.38 243.638L1810.4 246.813L1798.7 184.268C1796.38 171.86 1790.23 166.459 1781.54 168.085C1776.77 168.976 1772.44 172.146 1769.68 176.856C1766.92 181.566 1765.89 187.524 1766.82 193.64L1777.9 252.893L1760.93 256.069L1749.23 193.523C1746.91 181.116 1740.75 175.714 1732.06 177.341C1727.3 178.232 1722.96 181.401 1720.2 186.111C1717.44 190.821 1716.41 196.779 1717.34 202.895L1728.43 262.149L1711.24 265.363L1692.96 167.62L1708.28 164.754L1711.5 172.801L1712.52 173.659L1713.15 172.491C1714.82 168.773 1717.24 165.699 1720.17 163.053C1723.15 160.661 1726.48 158.99 1730 158.332C1735.08 156.857 1740.29 157.194 1745.41 159.38C1750.53 161.567 1755.07 165.175 1758.59 170.281L1762.17 163.06Z" fill="#1D1E1B"/>
<path d="M1883.49 235.497C1855.96 240.647 1834.59 210.049 1826.21 165.229C1817.83 120.409 1826.69 84.1574 1854.22 79.0068C1881.75 73.8563 1903.12 104.454 1911.5 149.274C1919.89 194.094 1910.82 230.385 1883.49 235.497ZM1879.7 215.239C1897.51 211.909 1900.92 186.635 1894.48 152.197C1888.04 117.759 1875.92 95.3889 1857.91 98.758C1840.11 102.088 1836.7 127.363 1843.14 161.801C1849.58 196.239 1861.69 218.608 1879.7 215.239Z" fill="#1D1E1B"/>
<path d="M1913.64 126.338L1929.16 123.434L1921.35 81.6522L1934.8 79.135L1938.12 78.5154L1945.93 120.297L1963.12 117.082L1966.62 135.821L1949.44 139.035L1958.82 189.173C1959.1 190.692 1959.55 191.919 1960.2 193.108C1960.85 194.297 1961.7 195.447 1962.72 196.305C1963.74 197.162 1964.92 197.729 1966.05 198.041C1967.18 198.354 1968.47 198.375 1969.45 197.928L1979.22 194.005L1982.72 212.743L1973.79 216.512C1956.81 219.687 1945.55 211.048 1942.05 192.309L1932.67 142.172L1917.14 145.076L1913.64 126.338Z" fill="#1D1E1B"/>
<path d="M2027.94 229.969L2026.66 232.304L1992.51 238.694L1990.19 226.286L2013.99 221.833L1980.83 44.5786L1957.03 49.0321L1954.66 36.3711L1988.82 29.9813L1990.85 31.6973L2027.94 229.969Z" fill="#1D1E1B"/>
</svg>
