<svg width="1172" height="473" viewBox="0 0 1172 473" fill="none" xmlns="http://www.w3.org/2000/svg">
<rect x="0.277344" y="82.8613" width="195.25" height="312" fill="#1D1E1B" fill-opacity="0.2"/>
<path d="M195.527 86.1966L198.86 82.8613H263.085V102.267H217.643V375.456H262.479V394.861H198.86L195.527 391.526V86.1966Z" fill="#1D1E1B"/>
<path d="M436.372 277.52C435.766 299.351 426.98 319.969 411.53 335.13C396.08 350.29 375.479 359.083 353.667 359.386C331.855 359.689 310.951 351.503 295.198 336.342C279.445 321.485 270.053 300.867 269.145 279.34H301.56C301.56 286.01 303.075 292.377 305.801 298.442C308.528 304.506 312.163 309.963 317.01 314.512C321.857 319.06 327.614 322.698 333.672 324.821C339.731 327.246 346.396 328.156 353.061 327.853C359.726 328.156 366.694 327.246 372.753 324.821C379.115 322.395 384.871 318.756 389.718 314.208C394.565 309.357 398.2 303.899 400.927 297.532C403.351 291.165 404.562 284.494 404.259 277.823C404.259 245.684 383.356 227.188 352.758 226.278C333.37 225.672 319.737 226.278 296.713 227.794L282.171 197.17L309.437 121.672H416.983V153.509H330.037L312.466 198.08C326.099 196.261 339.731 195.654 353.364 195.654C402.745 196.261 436.372 227.491 436.372 277.52Z" fill="#1D1E1B"/>
<path d="M468.484 111.666H500.597V217.788L502.112 219.305L503.626 217.788C507.868 212.634 513.321 208.692 519.683 205.963C525.742 203.235 532.406 201.719 539.071 201.719C547.251 201.112 555.43 202.325 563.004 205.357C570.578 208.086 577.546 212.634 583.302 218.395C589.058 224.156 593.602 231.13 596.328 238.71C599.055 246.29 600.267 254.477 599.964 262.663V356.354H568.154V262.663C567.245 242.045 557.248 230.523 536.042 230.523C526.953 230.523 518.168 234.162 511.503 240.529C504.838 246.896 501.203 255.386 500.597 264.482V355.748H468.484V111.666Z" fill="#1D1E1B"/>
<path d="M581.484 114.698C583.302 112.879 585.423 111.363 587.543 110.453C589.967 109.543 592.39 108.937 594.814 108.937C607.841 108.937 614.809 117.124 614.809 128.949V165.637H602.994V130.161C602.994 123.188 599.661 119.549 593.602 119.549C590.27 119.549 586.937 120.762 584.514 123.188C582.09 125.613 580.575 128.645 580.575 131.981V165.637H568.76V130.161C568.76 123.188 565.428 119.549 559.369 119.549C556.037 119.549 552.704 120.762 550.281 123.188C547.857 125.613 546.342 128.645 546.342 131.981V165.637H534.527V109.847H545.131L546.342 114.698L546.948 115.304L547.554 114.698C549.069 112.879 551.189 111.363 553.31 110.453C555.431 109.543 557.854 108.937 560.581 108.937C564.216 108.634 567.549 109.543 570.881 111.059C573.911 112.879 576.637 115.304 578.455 118.336L581.484 114.698Z" fill="#1D1E1B"/>
<path d="M711.449 359.386C659.645 359.386 631.168 307.841 631.168 238.71C631.168 169.578 659.948 118.033 711.449 118.033C762.95 118.033 791.73 169.578 791.73 238.71C791.73 307.841 762.95 359.386 711.449 359.386ZM711.449 328.459C745.076 328.459 759.618 291.771 759.618 238.71C759.618 185.648 745.076 148.96 711.449 148.96C677.822 148.96 663.28 185.648 663.28 238.71C663.28 291.771 677.822 328.459 711.449 328.459Z" fill="#1D1E1B"/>
<path d="M803.543 205.358H832.626V141.078L858.074 141.078H864.133V205.358H896.548V234.163H864.133V311.48C864.133 313.603 864.436 315.725 865.041 317.848C865.95 319.97 867.162 321.789 868.677 323.306C870.192 324.822 872.009 326.034 874.13 326.641C876.25 327.247 878.371 327.55 880.492 327.55L899.88 324.215V353.02L882.309 356.355C850.197 356.355 832.929 340.285 832.929 311.48V234.163H803.846V205.358H803.543Z" fill="#1D1E1B"/>
<path d="M976.526 391.526L973.194 394.861H908.969V375.456H953.805V102.267H908.969V82.8613H973.194L976.526 86.1966V391.526Z" fill="#1D1E1B"/>
<rect x="1.77734" y="6.36133" width="1168.5" height="465" stroke="#1D1E1B" stroke-width="3"/>
<path d="M0.277344 82.8613H1169.87" stroke="#1D1E1B" stroke-width="3"/>
<path d="M0.277344 394.861H1169.87" stroke="#1D1E1B" stroke-width="3"/>
<path d="M195.527 472.861L195.527 4.86133" stroke="#1D1E1B" stroke-width="3"/>
<path d="M976.527 472.861L976.527 4.86133" stroke="#1D1E1B" stroke-width="3"/>
<path d="M98.9367 44.0413L92.2867 33.9613H84.5867L95.0867 49.9213L83.8867 66.8613H91.5867L98.9367 55.7313L106.287 66.8613H113.987L102.787 49.9213L113.287 33.9613H105.587L98.9367 44.0413Z" fill="#1D1E1B"/>
<path d="M66.2867 252.233H89.3867V265.533H96.3867V252.233H101.987V245.583H96.3867V214.433H87.2867C87.2867 214.433 78.5367 227.733 66.2867 245.583V252.233ZM74.1267 245.583C79.7267 237.603 85.3267 229.273 89.3867 223.253V245.583H74.1267ZM118.423 242.713L111.773 232.633H104.073L114.573 248.593L103.373 265.533H111.073L118.423 254.403L125.773 265.533H133.473L122.273 248.593L132.773 232.633H125.073L118.423 242.713Z" fill="#1D1E1B"/>
</svg>
