<svg width="781" height="313" viewBox="0 0 781 313" fill="none" xmlns="http://www.w3.org/2000/svg">
<path d="M0 3.34895L3.33243 0.0136719H67.5574V19.4189H22.1152V292.608H66.9515V312.014H3.33243L0 308.678L0 3.34895Z" fill="#1D1E1B"/>
<path d="M240.843 194.673C240.237 216.504 231.452 237.122 216.002 252.282C200.551 267.442 179.951 276.235 158.138 276.538C136.326 276.842 115.423 268.655 99.6695 253.495C83.9162 238.638 74.5248 218.02 73.616 196.492H106.031C106.031 203.162 107.546 209.53 110.273 215.594C112.999 221.658 116.635 227.116 121.482 231.664C126.329 236.212 132.085 239.85 138.144 241.973C144.203 244.399 150.868 245.308 157.533 245.005C164.197 245.308 171.165 244.399 177.224 241.973C183.586 239.547 189.342 235.909 194.189 231.361C199.036 226.509 202.672 221.052 205.398 214.684C207.822 208.317 209.034 201.646 208.731 194.976C208.731 162.836 187.827 144.34 157.23 143.431C137.841 142.824 124.208 143.431 101.184 144.947L86.6427 114.323L113.908 38.8242H221.455V70.6609H134.509L116.938 115.232C130.57 113.413 144.203 112.807 157.836 112.807C207.216 113.413 240.843 144.643 240.843 194.673Z" fill="#1D1E1B"/>
<path d="M272.955 28.8184H305.068V134.941L306.583 136.457L308.097 134.941C312.339 129.786 317.792 125.845 324.154 123.116C330.213 120.387 336.877 118.871 343.542 118.871C351.722 118.264 359.902 119.477 367.475 122.509C375.049 125.238 382.017 129.786 387.773 135.547C393.529 141.308 398.073 148.282 400.799 155.862C403.526 163.442 404.738 171.629 404.435 179.815V273.506H372.625V179.815C371.716 159.197 361.719 147.676 340.513 147.676C331.424 147.676 322.639 151.314 315.974 157.681C309.309 164.049 305.674 172.538 305.068 181.635V272.9H272.955V28.8184Z" fill="#1D1E1B"/>
<path d="M385.957 31.8513C387.774 30.032 389.895 28.516 392.016 27.6064C394.439 26.6967 396.863 26.0903 399.286 26.0903C412.313 26.0903 419.281 34.2769 419.281 46.102V82.79H407.466V47.3148C407.466 40.3411 404.133 36.7026 398.074 36.7026C394.742 36.7026 391.41 37.9154 388.986 40.3411C386.562 42.7667 385.048 45.7988 385.048 49.1341V82.79H373.233V47.3148C373.233 40.3411 369.9 36.7026 363.841 36.7026C360.509 36.7026 357.177 37.9154 354.753 40.3411C352.329 42.7667 350.815 45.7988 350.815 49.1341V82.79H339V26.9999H349.603L350.815 31.8513L351.42 32.4577L352.026 31.8513C353.541 30.032 355.662 28.516 357.782 27.6064C359.903 26.6967 362.327 26.0903 365.053 26.0903C368.689 25.7871 372.021 26.6967 375.353 28.2128C378.383 30.032 381.109 32.4577 382.927 35.4897L385.957 31.8513Z" fill="#1D1E1B"/>
<path d="M515.92 276.537C464.116 276.537 435.639 224.992 435.639 155.861C435.639 86.7298 464.419 35.1846 515.92 35.1846C567.421 35.1846 596.201 86.7298 596.201 155.861C596.201 224.992 567.421 276.537 515.92 276.537ZM515.92 245.61C549.547 245.61 564.089 208.922 564.089 155.861C564.089 102.8 549.547 66.1117 515.92 66.1117C482.293 66.1117 467.751 102.8 467.751 155.861C467.751 208.922 482.293 245.61 515.92 245.61Z" fill="#1D1E1B"/>
<path d="M608.017 122.509H637.1V58.2295L662.548 58.2295H668.607V122.509H701.022V151.314H668.607V228.632C668.607 230.754 668.91 232.877 669.516 234.999C670.424 237.122 671.636 238.941 673.151 240.457C674.666 241.973 676.483 243.186 678.604 243.792C680.725 244.399 682.845 244.702 684.966 244.702L704.355 241.367V270.171L686.784 273.506C654.671 273.506 637.403 257.436 637.403 228.632V151.314H608.32V122.509H608.017Z" fill="#1D1E1B"/>
<path d="M781 308.678L777.668 312.014H713.443V292.608H758.279V19.4189H713.443V0.0136719H777.668L781 3.34895V308.678Z" fill="#1D1E1B"/>
</svg>
