<svg width="3143" height="1588" viewBox="0 0 3143 1588" fill="none" xmlns="http://www.w3.org/2000/svg">
<path d="M1979.36 294.429L1982.42 297.488H2043.6V279.133H2000.77V19.1068H2043.6V0.751953H1982.42L1979.36 3.81109V294.429Z" fill="#1D1E1B"/>
<path d="M2129.28 107.822C2115.82 107.516 2097.47 109.351 2090.43 110.269L2107.26 67.7471H2190.46V37.4616H2087.98L2061.98 109.351L2075.75 138.413C2097.77 137.189 2110.93 136.272 2129.28 136.884C2158.34 137.801 2178.23 155.238 2178.23 185.83C2178.23 214.892 2157.12 233.552 2129.28 233.552C2101.44 233.552 2080.33 213.362 2080.33 187.359H2049.74C2049.74 228.658 2084.92 263.838 2129.28 263.838C2172.11 263.838 2208.82 230.187 2208.82 185.83C2208.82 138.413 2176.7 108.74 2129.28 107.822Z" fill="#1D1E1B"/>
<path d="M2239.43 260.779H2270.03V173.899C2270.64 156.156 2285.63 141.472 2303.68 141.472C2323.87 141.472 2333.35 152.485 2334.27 172.064V260.779H2364.86V172.064C2364.86 138.413 2343.44 113.94 2306.73 113.94C2294.5 113.94 2279.2 120.058 2273.08 129.236L2271.55 130.765L2270.03 129.236V28.2842H2239.43V260.779Z" fill="#1D1E1B"/>
<path d="M2511.55 138.413C2503.6 123.423 2487.69 113.94 2465.67 113.94C2453.43 113.94 2438.13 120.058 2432.02 129.236L2430.49 130.765L2428.96 129.236L2425.9 116.999H2398.37V260.779H2428.96V173.899C2429.57 156.156 2444.56 141.472 2462.61 141.472C2477.9 141.472 2487.08 150.65 2487.08 169.005V260.779H2517.67V173.899C2518.28 156.156 2533.27 141.472 2551.32 141.472C2566.62 141.472 2575.8 150.65 2575.8 169.005V260.779H2606.39V165.945C2606.39 135.354 2588.03 113.94 2554.38 113.94C2542.15 113.94 2526.85 120.058 2519.2 129.236L2511.55 138.413Z" fill="#1D1E1B"/>
<path d="M2782.3 149.12C2782.3 83.3487 2754.77 34.4025 2705.82 34.4025C2656.57 34.4025 2629.34 83.3487 2629.34 149.12C2629.34 214.892 2656.57 263.838 2705.82 263.838C2754.77 263.838 2782.3 214.892 2782.3 149.12ZM2659.93 149.12C2659.93 98.6443 2673.7 63.7702 2705.82 63.7702C2737.94 63.7702 2751.71 98.6443 2751.71 149.12C2751.71 199.596 2737.94 234.47 2705.82 234.47C2673.7 234.47 2659.93 199.596 2659.93 149.12Z" fill="#1D1E1B"/>
<path d="M2792.95 144.531H2820.78V217.951C2820.78 245.483 2837.3 260.779 2867.9 260.779L2884.72 257.719V230.187L2866.37 233.246C2857.19 233.246 2850.76 227.128 2850.76 217.951V144.531H2881.66V116.999H2850.76V55.8164H2844.95L2820.78 86.4078V116.999H2792.95V144.531Z" fill="#1D1E1B"/>
<path d="M2958.09 3.81109L2955.03 0.751953H2893.85V19.1068H2936.68V279.133H2893.85V297.488H2955.03L2958.09 294.429V3.81109Z" fill="#1D1E1B"/>
<path d="M50.124 149.119H93.124V139.219H77.124V76.1191H65.124L51.124 93.1191V95.1191H61.624L67.124 87.7191V139.219H50.124V149.119ZM102.104 149.119H114.105V136.119H102.104V149.119ZM196.906 107.119H168.906V76.1191H158.406V149.119H168.906V117.119H196.906V149.119H207.406V76.1191H196.906V107.119ZM266.445 102.119H257.445L256.445 106.119L255.945 106.619L255.445 106.119C252.445 103.119 247.445 101.119 242.445 101.119C229.445 101.119 218.445 111.119 218.445 125.619C218.445 140.119 229.445 150.119 242.445 150.119C247.445 150.119 252.445 148.119 255.445 145.119L255.945 144.619L256.445 145.119L257.445 149.119H266.445V102.119ZM257.445 125.619C257.445 134.119 251.445 141.119 242.945 141.119C233.445 141.119 228.345 134.119 228.345 125.619C228.345 117.119 233.445 110.119 242.945 110.119C251.445 110.119 257.445 117.119 257.445 125.619ZM311.477 79.1191C306.877 80.9191 303.177 82.3191 298.477 83.9191C284.677 88.7191 274.577 97.2191 276.877 126.119C277.977 140.119 287.977 150.119 300.977 150.119C313.477 150.119 325.477 140.119 325.477 125.619C325.477 111.119 314.477 101.119 301.477 101.119C294.977 101.119 289.977 104.519 287.477 107.619L286.977 108.119L286.477 107.619C286.077 101.719 290.877 95.6191 301.277 92.5191C305.577 91.2191 310.677 89.4191 314.777 87.7191C321.677 84.8191 326.377 81.6191 325.477 74.1191L324.477 73.1191H316.477V74.0191C316.477 76.5191 314.477 77.9191 311.477 79.1191ZM286.477 125.619C286.477 117.119 291.977 110.119 300.977 110.119C309.977 110.119 315.577 117.119 315.577 125.619C315.577 134.119 309.977 141.119 300.977 141.119C292.977 141.119 286.477 134.619 286.477 125.619ZM334.434 149.119H345.934L364.634 117.119V149.119H374.434V102.119H362.934L344.234 134.119V102.119H334.434V149.119ZM386.387 170.319H396.287V145.119L396.887 144.619L397.387 145.119C400.387 148.119 405.487 150.119 410.387 150.119C423.387 150.119 434.387 140.119 434.387 125.619C434.387 111.119 423.387 101.119 410.387 101.119C405.387 101.119 400.387 103.119 397.387 106.119L396.887 106.619L396.287 106.119L395.387 102.119H386.387V170.319ZM395.387 125.619C395.387 117.119 401.387 110.119 409.887 110.119C419.387 110.119 424.387 117.119 424.387 125.619C424.387 134.119 419.387 141.119 409.887 141.119C401.387 141.119 395.387 134.119 395.387 125.619ZM488.418 102.119H479.418L478.418 106.119L477.918 106.619L477.418 106.119C474.418 103.119 469.418 101.119 464.418 101.119C451.418 101.119 440.418 111.119 440.418 125.619C440.418 140.119 451.418 150.119 464.418 150.119C469.418 150.119 474.418 148.119 477.418 145.119L477.918 144.619L478.418 145.119L479.418 149.119H488.418V102.119ZM479.418 125.619C479.418 134.119 473.418 141.119 464.918 141.119C455.418 141.119 450.318 134.119 450.318 125.619C450.318 117.119 455.418 110.119 464.918 110.119C473.418 110.119 479.418 117.119 479.418 125.619ZM541.449 128.119L542.449 125.119C542.449 110.619 532.449 101.119 520.449 101.119C507.449 101.119 497.449 111.119 497.449 125.619C497.449 140.119 507.949 150.119 520.449 150.119C529.949 150.119 536.949 145.119 540.949 138.119L532.549 134.119C531.049 138.119 526.949 141.119 520.949 141.119C512.449 141.119 507.449 135.119 507.449 128.119H541.449ZM520.449 110.119C526.449 110.119 531.449 114.119 531.949 119.319H507.949C509.449 114.119 513.449 110.119 520.449 110.119ZM575.438 132.719L562.438 102.119H550.938V149.119H559.938V118.119L570.938 144.119H579.938L590.938 118.119V149.119H599.938V102.119H588.438L575.438 132.719ZM688.096 140.119H671.896V102.119H662.096V140.119H645.896V102.119H635.996V149.119H697.996V102.119H688.096V140.119ZM710.02 170.319H719.92V145.119L720.52 144.619L721.02 145.119C724.02 148.119 729.12 150.119 734.02 150.119C747.02 150.119 758.02 140.119 758.02 125.619C758.02 111.119 747.02 101.119 734.02 101.119C729.02 101.119 724.02 103.119 721.02 106.119L720.52 106.619L719.92 106.119L719.02 102.119H710.02V170.319ZM719.02 125.619C719.02 117.119 725.02 110.119 733.52 110.119C743.02 110.119 748.02 117.119 748.02 125.619C748.02 134.119 743.02 141.119 733.52 141.119C725.02 141.119 719.02 134.119 719.02 125.619ZM767.051 149.119H778.551L797.251 117.119V149.119H807.051V102.119H795.551L776.851 134.119V102.119H767.051V149.119ZM853.004 149.119C869.004 149.119 879.004 138.619 879.004 125.619C879.004 112.619 869.004 102.119 853.004 102.119V73.1191H843.004V102.119C827.004 102.119 817.004 112.619 817.004 125.619C817.004 138.619 827.004 149.119 843.004 149.119V170.319H853.004V149.119ZM827.004 125.619C827.004 117.119 832.004 111.119 842.504 111.119H843.004V140.119H842.504C832.004 140.119 827.004 134.119 827.004 125.619ZM853.004 140.119V111.119H853.504C864.004 111.119 869.004 117.119 869.004 125.619C869.004 134.119 864.004 140.119 853.504 140.119H853.004ZM881.996 111.119H896.996V149.119H906.996V111.119H921.996V102.119H881.996V111.119ZM924.5 125.619C924.5 140.119 936 150.119 949 150.119C962 150.119 973.5 140.119 973.5 125.619C973.5 111.119 962 101.119 949 101.119C936 101.119 924.5 111.119 924.5 125.619ZM934.5 125.619C934.5 117.119 939.5 110.119 949 110.119C958.5 110.119 963.5 117.119 963.5 125.619C963.5 134.119 958.5 141.119 949 141.119C939.5 141.119 934.5 134.119 934.5 125.619ZM1006.98 132.719L993.98 102.119H982.48V149.119H991.48V118.119L1002.48 144.119H1011.48L1022.48 118.119V149.119H1031.48V102.119H1019.98L1006.98 132.719ZM1069.54 149.119H1080.04V117.119H1110.54V107.119H1080.04V86.1191H1113.54V76.1191H1069.54V149.119ZM1159.49 102.119H1149.49V130.619C1149.19 136.419 1144.29 141.119 1138.49 141.119C1131.79 141.119 1128.69 137.519 1128.49 131.119V102.119H1118.49V131.119C1118.49 142.119 1125.49 150.119 1137.49 150.119C1141.49 150.119 1146.49 148.119 1148.49 145.119L1148.99 144.619L1149.49 145.119L1150.49 149.119H1159.49V102.119ZM1168.45 152.219C1168.45 163.419 1178.45 170.019 1188.95 170.019C1199.45 170.019 1209.45 163.419 1209.45 152.219C1209.45 145.519 1205.85 140.419 1200.45 137.619C1205.85 134.419 1209.45 128.819 1209.45 121.619V102.119H1202.45L1201.45 106.119L1200.95 106.619L1200.45 106.119C1198.45 103.119 1193.45 101.119 1188.95 101.119C1177.45 101.119 1168.45 110.119 1168.45 121.619C1168.45 128.819 1172.05 134.419 1177.45 137.619C1172.15 140.419 1168.45 145.519 1168.45 152.219ZM1177.95 121.619C1177.95 115.119 1182.45 110.119 1188.95 110.119C1195.45 110.119 1199.95 115.119 1199.95 121.619C1199.95 128.119 1195.45 133.119 1188.95 133.119C1182.45 133.119 1177.95 128.119 1177.95 121.619ZM1177.95 152.119C1177.95 146.619 1182.45 142.619 1188.95 142.619C1195.45 142.619 1199.95 146.619 1199.95 152.119C1199.95 157.619 1195.45 161.419 1188.95 161.419C1182.45 161.419 1177.95 157.619 1177.95 152.119ZM1259.98 102.119H1249.98V130.619C1249.68 136.419 1244.78 141.119 1238.98 141.119C1232.28 141.119 1229.18 137.519 1228.98 131.119V102.119H1218.98V131.119C1218.98 142.119 1225.98 150.119 1237.98 150.119C1241.98 150.119 1246.98 148.119 1248.98 145.119L1249.48 144.619L1249.98 145.119L1250.98 149.119H1259.98V102.119ZM1312.93 128.119L1313.93 125.119C1313.93 110.619 1303.93 101.119 1291.93 101.119C1278.93 101.119 1268.93 111.119 1268.93 125.619C1268.93 140.119 1279.43 150.119 1291.93 150.119C1301.43 150.119 1308.43 145.119 1312.43 138.119L1304.03 134.119C1302.53 138.119 1298.43 141.119 1292.43 141.119C1283.93 141.119 1278.93 135.119 1278.93 128.119H1312.93ZM1291.93 110.119C1297.93 110.119 1302.93 114.119 1303.43 119.319H1279.43C1280.93 114.119 1284.93 110.119 1291.93 110.119ZM49.124 778.119H59.024V775.119C59.024 767.119 65.624 762.819 72.124 762.819C78.624 762.819 85.124 767.119 85.124 775.119C85.124 781.619 81.524 784.719 78.124 788.119C66.124 800.119 48.124 808.619 48.124 822.119V827.119H94.124V817.219H60.624C60.624 811.619 73.124 806.119 85.124 794.119C89.324 789.919 95.124 784.119 95.124 775.119C95.124 761.119 84.124 753.119 72.124 753.119C60.124 753.119 49.124 762.119 49.124 775.119V778.119ZM102.104 827.119H114.105V814.119H102.104V827.119ZM154.406 790.619C154.406 811.919 171.606 829.119 192.906 829.119C214.206 829.119 231.406 811.919 231.406 790.619C231.406 769.319 214.206 752.119 192.906 752.119C171.606 752.119 154.406 769.319 154.406 790.619ZM164.906 790.719C164.906 774.119 176.406 762.119 192.906 762.119C209.406 762.119 220.806 774.119 220.806 790.719C220.806 807.119 209.406 819.119 192.906 819.119C176.406 819.119 164.906 807.119 164.906 790.719ZM274.367 757.119C269.767 758.919 266.067 760.319 261.367 761.919C247.567 766.719 237.467 775.219 239.767 804.119C240.867 818.119 250.867 828.119 263.867 828.119C276.367 828.119 288.367 818.119 288.367 803.619C288.367 789.119 277.367 779.119 264.367 779.119C257.867 779.119 252.867 782.519 250.367 785.619L249.867 786.119L249.367 785.619C248.967 779.719 253.767 773.619 264.167 770.519C268.467 769.219 273.567 767.419 277.667 765.719C284.567 762.819 289.267 759.619 288.367 752.119L287.367 751.119H279.367V752.019C279.367 754.519 277.367 755.919 274.367 757.119ZM249.367 803.619C249.367 795.119 254.867 788.119 263.867 788.119C272.867 788.119 278.467 795.119 278.467 803.619C278.467 812.119 272.867 819.119 263.867 819.119C255.867 819.119 249.367 812.619 249.367 803.619ZM293.324 789.119H304.324V827.119H319.324C331.324 827.119 338.324 820.119 338.324 810.619C338.324 801.119 331.324 794.119 319.324 794.119H314.324V780.119H293.324V789.119ZM314.324 818.219V803.019H319.824C325.324 803.019 328.424 806.119 328.424 810.619C328.424 815.119 325.324 818.219 319.824 818.219H314.324ZM389.301 806.119L390.301 803.119C390.301 788.619 380.301 779.119 368.301 779.119C355.301 779.119 345.301 789.119 345.301 803.619C345.301 818.119 355.801 828.119 368.301 828.119C377.801 828.119 384.801 823.119 388.801 816.119L380.401 812.119C378.901 816.119 374.801 819.119 368.801 819.119C360.301 819.119 355.301 813.119 355.301 806.119H389.301ZM368.301 788.119C374.301 788.119 379.301 792.119 379.801 797.319H355.801C357.301 792.119 361.301 788.119 368.301 788.119ZM392.813 839.119H402.813V827.119H434.813V839.119H444.813V818.119H438.813V780.119H401.813V811.119C401.813 815.419 399.513 817.919 395.913 818.119H392.813V839.119ZM408.213 818.119C410.413 816.319 411.813 813.719 411.813 810.119V789.119H428.813V818.119H408.213ZM452.793 827.119H464.293L482.993 795.119V827.119H492.793V780.119H481.293L462.593 812.119V780.119H452.793V827.119ZM504.746 827.119H514.746V807.119H534.746V827.119H544.746V780.119H534.746V798.119H514.746V780.119H504.746V827.119ZM565.199 827.119L580.699 807.919H582.499V827.119H591.699V780.119H572.199C560.699 780.119 555.199 786.019 555.199 794.519C555.199 800.619 560.699 807.119 570.299 807.919L554.699 826.119V827.119H565.199ZM564.699 794.119C564.699 790.619 567.099 788.119 571.399 788.119H582.699V800.119H571.899C567.599 800.119 564.699 797.719 564.699 794.119ZM645.746 806.119L646.746 803.119C646.746 788.619 636.746 779.119 624.746 779.119C611.746 779.119 601.746 789.119 601.746 803.619C601.746 818.119 612.246 828.119 624.746 828.119C634.246 828.119 641.246 823.119 645.246 816.119L636.846 812.119C635.346 816.119 631.246 819.119 625.246 819.119C616.746 819.119 611.746 813.119 611.746 806.119H645.746ZM624.746 788.119C630.746 788.119 635.746 792.119 636.246 797.319H612.246C613.746 792.119 617.746 788.119 624.746 788.119ZM679.734 810.719L666.734 780.119H655.234V827.119H664.234V796.119L675.234 822.119H684.234L695.234 796.119V827.119H704.234V780.119H692.734L679.734 810.719ZM88.624 1432.12H50.624V1442.02H81.124L60.524 1459.12V1468.12H70.624C79.124 1468.12 85.624 1473.62 85.624 1482.62C85.624 1490.12 79.624 1496.62 71.624 1496.62C63.624 1496.62 57.624 1491.12 57.624 1483.62H47.624C47.624 1495.62 57.624 1506.12 71.624 1506.12C86.124 1506.12 95.624 1494.12 95.624 1482.62C95.624 1469.62 86.324 1460.02 73.224 1459.32L94.624 1442.02L88.624 1432.12ZM102.104 1505.12H114.105V1492.12H102.104V1505.12ZM164.406 1486.12C164.406 1491.82 161.206 1494.82 156.206 1495.12H151.406V1520.12H161.906V1505.12H207.906V1520.12H218.406V1495.12H210.406V1432.12H164.406V1486.12ZM170.506 1495.12C172.906 1492.52 174.406 1489.02 174.406 1485.12V1442.12H199.906V1495.12H170.506ZM223.426 1481.62C223.426 1496.12 234.926 1506.12 247.926 1506.12C260.926 1506.12 272.426 1496.12 272.426 1481.62C272.426 1467.12 260.926 1457.12 247.926 1457.12C234.926 1457.12 223.426 1467.12 223.426 1481.62ZM233.426 1481.62C233.426 1473.12 238.426 1466.12 247.926 1466.12C257.426 1466.12 262.426 1473.12 262.426 1481.62C262.426 1490.12 257.426 1497.12 247.926 1497.12C238.426 1497.12 233.426 1490.12 233.426 1481.62ZM288.206 1481.62C288.206 1473.12 293.406 1466.12 302.906 1466.12C308.906 1466.12 313.406 1470.12 315.006 1474.12L323.306 1469.12C319.406 1462.12 311.906 1457.12 302.406 1457.12C289.806 1457.12 278.406 1467.12 278.406 1481.62C278.406 1496.12 289.806 1506.12 302.406 1506.12C311.906 1506.12 319.506 1501.12 323.406 1494.12L315.106 1489.12C313.506 1493.12 308.906 1497.12 302.906 1497.12C293.406 1497.12 288.206 1490.12 288.206 1481.62ZM327.406 1467.12H342.406V1505.12H352.406V1467.12H367.406V1458.12H327.406V1467.12ZM375.449 1526.32H385.349V1501.12L385.949 1500.62L386.449 1501.12C389.449 1504.12 394.549 1506.12 399.449 1506.12C412.449 1506.12 423.449 1496.12 423.449 1481.62C423.449 1467.12 412.449 1457.12 399.449 1457.12C394.449 1457.12 389.449 1459.12 386.449 1462.12L385.949 1462.62L385.349 1462.12L384.449 1458.12H375.449V1526.32ZM384.449 1481.62C384.449 1473.12 390.449 1466.12 398.949 1466.12C408.449 1466.12 413.449 1473.12 413.449 1481.62C413.449 1490.12 408.449 1497.12 398.949 1497.12C390.449 1497.12 384.449 1490.12 384.449 1481.62ZM477.48 1458.12H468.48L467.48 1462.12L466.98 1462.62L466.48 1462.12C463.48 1459.12 458.48 1457.12 453.48 1457.12C440.48 1457.12 429.48 1467.12 429.48 1481.62C429.48 1496.12 440.48 1506.12 453.48 1506.12C458.48 1506.12 463.48 1504.12 466.48 1501.12L466.98 1500.62L467.48 1501.12L468.48 1505.12H477.48V1458.12ZM468.48 1481.62C468.48 1490.12 462.48 1497.12 453.98 1497.12C444.48 1497.12 439.38 1490.12 439.38 1481.62C439.38 1473.12 444.48 1466.12 453.98 1466.12C462.48 1466.12 468.48 1473.12 468.48 1481.62ZM489.512 1505.12H501.012L519.712 1473.12V1505.12H529.512V1458.12H518.012L499.312 1490.12V1458.12H489.512V1505.12ZM541.465 1505.12H561.965C572.965 1505.12 579.465 1499.62 579.465 1491.12C579.465 1487.02 577.065 1483.42 572.865 1481.12C576.465 1478.82 578.465 1475.32 578.465 1471.62C578.465 1463.62 572.465 1458.12 561.465 1458.12H541.465V1505.12ZM551.265 1496.52V1485.62H562.965C566.465 1485.62 569.465 1487.12 569.465 1491.12C569.465 1494.12 566.965 1496.52 562.965 1496.52H551.265ZM551.265 1477.12V1466.72H561.965C565.965 1466.72 568.465 1468.62 568.465 1472.12C568.465 1475.62 565.465 1477.12 561.965 1477.12H551.265ZM634.512 1458.12H625.512L624.512 1462.12L624.012 1462.62L623.512 1462.12C620.512 1459.12 615.512 1457.12 610.512 1457.12C597.512 1457.12 586.512 1467.12 586.512 1481.62C586.512 1496.12 597.512 1506.12 610.512 1506.12C615.512 1506.12 620.512 1504.12 623.512 1501.12L624.012 1500.62L624.512 1501.12L625.512 1505.12H634.512V1458.12ZM625.512 1481.62C625.512 1490.12 619.512 1497.12 611.012 1497.12C601.512 1497.12 596.412 1490.12 596.412 1481.62C596.412 1473.12 601.512 1466.12 611.012 1466.12C619.512 1466.12 625.512 1473.12 625.512 1481.62ZM687.543 1484.12L688.543 1481.12C688.543 1466.62 678.543 1457.12 666.543 1457.12C653.543 1457.12 643.543 1467.12 643.543 1481.62C643.543 1496.12 654.043 1506.12 666.543 1506.12C676.043 1506.12 683.043 1501.12 687.043 1494.12L678.643 1490.12C677.143 1494.12 673.043 1497.12 667.043 1497.12C658.543 1497.12 653.543 1491.12 653.543 1484.12H687.543ZM666.543 1466.12C672.543 1466.12 677.543 1470.12 678.043 1475.32H654.043C655.543 1470.12 659.543 1466.12 666.543 1466.12ZM721.531 1488.72L708.531 1458.12H697.031V1505.12H706.031V1474.12L717.031 1500.12H726.031L737.031 1474.12V1505.12H746.031V1458.12H734.531L721.531 1488.72Z" fill="black"/>
<path d="M2645.38 1428.37H2673.22V1501.78C2673.22 1529.32 2689.74 1544.61 2720.33 1544.61L2737.15 1541.55V1514.02L2718.8 1517.08C2709.62 1517.08 2703.2 1510.96 2703.2 1501.78V1428.37H2734.09V1400.83H2703.2V1339.65H2697.38H2673.22V1400.83H2645.38V1428.37Z" fill="#1D1E1B"/>
<path d="M1980.31 1428.37H2008.15V1501.78C2008.15 1529.32 2024.67 1544.61 2055.26 1544.61L2072.09 1541.55V1514.02L2053.73 1517.08C2044.55 1517.08 2038.13 1510.96 2038.13 1501.78V1428.37H2069.03V1400.83H2038.13V1339.65H2032.32L2008.15 1370.24V1400.83H1980.31V1428.37Z" fill="#1D1E1B"/>
<path d="M2419.88 1357.79L2504.22 1442.13M2504.22 1442.13L2419.88 1526.47M2504.22 1442.13H2213.25" stroke="#1D1E1B" stroke-width="23"/>
<rect x="3002.28" y="672.873" width="137.525" height="250.688" stroke="#BECB9B" stroke-width="6"/>
<path d="M3005.28 675.873H3037.39V781.996L3038.9 783.512L3040.42 781.996C3044.66 776.841 3050.11 772.899 3056.48 770.17C3062.53 767.442 3069.2 765.926 3075.86 765.926C3084.04 765.319 3092.22 766.532 3099.8 769.564C3107.37 772.293 3114.34 776.841 3120.09 782.602C3125.85 788.363 3130.39 795.337 3133.12 802.917C3135.85 810.497 3137.06 818.684 3136.76 826.87V920.561H3104.95V826.87C3104.04 806.252 3094.04 794.73 3072.83 794.73C3063.75 794.73 3054.96 798.369 3048.3 804.736C3041.63 811.103 3038 819.593 3037.39 828.689V919.955H3005.28V675.873Z" fill="#1D1E1B"/>
<path d="M3103.48 681.692C3105.29 679.873 3107.41 678.357 3109.54 677.447C3111.96 676.538 3114.38 675.931 3116.81 675.931C3129.83 675.931 3136.8 684.118 3136.8 695.943V732.631H3124.99V697.156C3124.99 690.182 3121.65 686.543 3115.59 686.543C3112.26 686.543 3108.93 687.756 3106.51 690.182C3104.08 692.608 3102.57 695.64 3102.57 698.975V732.631H3090.75V697.156C3090.75 690.182 3087.42 686.543 3081.36 686.543C3078.03 686.543 3074.7 687.756 3072.27 690.182C3069.85 692.608 3068.33 695.64 3068.33 698.975V732.631H3056.52V676.841H3067.12L3068.33 681.692L3068.94 682.298L3069.55 681.692C3071.06 679.873 3073.18 678.357 3075.3 677.447C3077.42 676.538 3079.85 675.931 3082.57 675.931C3086.21 675.628 3089.54 676.538 3092.87 678.054C3095.9 679.873 3098.63 682.298 3100.45 685.331L3103.48 681.692Z" fill="#1D1E1B"/>
<path d="M1979.36 914.465H2009.95V827.586C2010.56 809.843 2025.55 795.159 2043.6 795.159C2063.79 795.159 2073.27 806.172 2074.19 825.75V914.465H2104.78V825.75C2104.78 792.1 2083.37 767.627 2046.66 767.627C2034.42 767.627 2019.13 773.745 2013.01 782.922L2011.48 784.452L2009.95 782.922V681.971H1979.36V914.465Z" fill="#1D1E1B"/>
<path d="M2251.48 792.1C2243.53 777.11 2227.62 767.627 2205.59 767.627C2193.36 767.627 2178.06 773.745 2171.94 782.922L2170.41 784.452L2168.88 782.922L2165.82 770.686H2138.29V914.465H2168.88V827.586C2169.49 809.843 2184.48 795.159 2202.53 795.159C2217.83 795.159 2227.01 804.336 2227.01 822.691V914.465H2257.6V827.586C2258.21 809.843 2273.2 795.159 2291.25 795.159C2306.54 795.159 2315.72 804.336 2315.72 822.691V914.465H2346.31V819.632C2346.31 789.041 2327.96 767.627 2294.31 767.627C2282.07 767.627 2266.77 773.745 2259.13 782.922L2251.48 792.1Z" fill="#1D1E1B"/>
<path d="M2710.84 713.877L2795.18 798.217M2795.18 798.217L2710.84 882.557M2795.18 798.217H2504.21" stroke="#1D1E1B" stroke-width="23"/>
</svg>
