<svg width="532" height="382" viewBox="0 0 532 382" fill="none" xmlns="http://www.w3.org/2000/svg">
<rect x="1.73926" y="19.5566" width="528.035" height="360.049" stroke="#1D1E1B" stroke-width="3"/>
<path d="M88.7451 80.9878L91.1699 78.5645H141.182V93.7105H105.719V305.755H140.576V320.598H91.1699L88.7451 318.175V80.9878Z" fill="#1D1E1B"/>
<path d="M260.607 229.417C260.303 246.38 253.332 262.435 241.208 274.249C229.084 286.063 213.019 292.727 196.349 293.03C179.375 293.333 163.31 286.669 150.883 275.158C138.456 263.647 131.485 247.592 130.575 230.931H155.733C155.733 236.081 156.945 241.23 159.067 245.774C161.189 250.318 164.22 254.559 167.857 258.194C171.494 261.829 176.041 264.555 180.89 266.07C185.74 267.888 190.893 268.796 196.046 268.493C201.198 268.796 206.654 267.888 211.504 266.07C216.353 264.252 220.9 261.526 224.537 257.588C228.174 253.953 231.205 249.409 233.327 244.563C235.146 239.716 236.055 234.566 236.055 229.114C236.055 204.274 219.688 190.037 196.046 189.128C181.193 188.522 170.282 189.128 152.399 190.34L141.184 166.712L162.401 107.945H246.058V132.785H177.859L164.22 167.318C174.828 166.106 185.437 165.197 196.046 165.5C234.54 166.712 260.607 190.643 260.607 229.417Z" fill="#1D1E1B"/>
<path d="M335.169 293.033C294.856 293.033 272.427 253.048 272.427 199.431C272.427 145.814 294.553 105.828 334.866 105.828C375.179 105.828 397.305 145.814 397.305 199.431C397.305 253.048 374.876 293.033 335.169 293.033ZM335.169 269.102C361.236 269.102 372.754 240.628 372.754 199.431C372.754 158.233 361.539 129.759 335.169 129.759C308.799 129.759 297.584 158.233 297.584 199.431C297.584 240.628 308.799 269.102 335.169 269.102Z" fill="#1D1E1B"/>
<path d="M442.769 318.175L440.344 320.598H390.332V305.755H425.189V93.7103H390.332V78.8672H440.344L442.769 81.2906V318.175Z" fill="#1D1E1B"/>
<path d="M87.6716 20.0059L87.6716 379.778" stroke="#1D1E1B" stroke-width="3"/>
<path d="M442.769 20.3164V379.787" stroke="#1D1E1B" stroke-width="3"/>
<path d="M0.239258 78.8672L531.275 78.8671" stroke="#1D1E1B" stroke-width="3"/>
<path d="M0.239258 320.598L531.275 320.598" stroke="#1D1E1B" stroke-width="3"/>
<path d="M43.5479 43.805L36.8979 33.725H29.1979L39.6979 49.685L28.4979 66.625H36.1979L43.5479 55.495L50.8979 66.625H58.5979L47.3979 49.685L57.8979 33.725H50.1979L43.5479 43.805Z" fill="#1D1E1B"/>
<path d="M10.8979 212.19H33.9979V225.49H40.9979V212.19H46.5979V205.54H40.9979V174.39H31.8979C31.8979 174.39 23.1479 187.69 10.8979 205.54V212.19ZM18.7379 205.54C24.3379 197.56 29.9379 189.23 33.9979 183.21V205.54H18.7379ZM63.0343 202.67L56.3843 192.59H48.6843L59.1843 208.55L47.9843 225.49H55.6843L63.0343 214.36L70.3843 225.49H78.0843L66.8843 208.55L77.3843 192.59H69.6843L63.0343 202.67Z" fill="#1D1E1B"/>
</svg>
